<svg xmlns="http://www.w3.org/2000/svg" xmlns:xlink="http://www.w3.org/1999/xlink" width="41px" height="54px">
  <path fill-rule="evenodd" fill="#007bff" d="M20.500,0.000 C9.196,0.000 0.000,9.084 0.000,20.250 C0.000,35.190 18.914,52.946 19.719,53.695 C19.939,53.898 20.220,54.000 20.500,54.000 C20.780,54.000 21.061,53.898 21.281,53.695 C22.086,52.946 41.000,35.190 41.000,20.250 C41.000,9.084 31.804,0.000 20.500,0.000 ZM20.500,30.000 C15.256,30.000 10.988,25.738 10.988,20.500 C10.988,15.262 15.256,11.000 20.500,11.000 C25.744,11.000 30.012,15.262 30.012,20.500 C30.012,25.738 25.744,30.000 20.500,30.000 Z"/>
</svg>
